<?xml version="1.0" encoding="utf-8"?>
<!-- Generator: Adobe Illustrator 22.1.0, SVG Export Plug-In . SVG Version: 6.00 Build 0)  -->
<svg version="1.1" id="Ebene_1" xmlns="http://www.w3.org/2000/svg" xmlns:xlink="http://www.w3.org/1999/xlink" x="0px" y="0px"
	 viewBox="0 0 180 61.5" style="enable-background:new 0 0 180 61.5;" xml:space="preserve">
<style type="text/css">
	.st0{fill:#FFFFFF;}
</style>
<path class="st0" d="M6.4,5.2h27.3c17.1,0,27.8,9.6,27.8,24.9c0,15.6-11.1,26.2-28.1,26.2H6.4V5.2z M31.7,45.1
	c8.1,0,12.7-6.4,12.7-14.8c0-8.2-4.4-13.9-12.4-13.9h-9.2v28.6H31.7z M102.8,46.1H82.5L79,56.3H62L82.5,5.2h20.4l20.4,51.1h-17
	L102.8,46.1z M99.2,35.6l-3.5-10.1c-1.4-3.6-2.3-6.2-3-9.9h-0.1c-0.6,3.7-1.5,6.3-2.9,9.9l-3.5,10.1H99.2z M139.2,39.1L119,5.2h17.7
	l9.4,17.9c0.9,1.4,1.2,2.6,1.4,3.7h0.1c0.2-1.1,0.6-2.2,1.4-3.7l9.6-17.9h17.2l-20.1,33.9v17.2h-16.5V39.1z"/>
</svg>
