<?xml version="1.0" encoding="utf-8"?>
<!-- Generator: Adobe Illustrator 22.0.0, SVG Export Plug-In . SVG Version: 6.00 Build 0)  -->
<svg version="1.1" id="Ebene_1" xmlns="http://www.w3.org/2000/svg" xmlns:xlink="http://www.w3.org/1999/xlink" x="0px" y="0px"
	 viewBox="0 0 178 273" style="enable-background:new 0 0 178 273;" xml:space="preserve">
<style type="text/css">
	.st0{fill:#FFFFFF;}
</style>
<path id="Logo" class="st0" d="M18.7,157.9v-23.5c0-14.7,8.3-23.9,21.4-23.9c13.4,0,22.5,9.5,22.5,24.1v23.3H18.7z M53,136.1
	c0-7-5.5-10.9-12.7-10.9c-7.1,0-11.9,3.8-11.9,10.6v7.9H53V136.1z M52.8,67.1h9.8v38H18.7V67.6h9.8V91h7.1V68.6H45V91h7.8V67.1z
	 M18.7,64V48.6l26.5-8.8c2.3-0.7,3.8-1.1,5.6-1.3v-0.2c-1.7-0.2-3.3-0.6-5.6-1.3l-26.5-8.8V12.7l43.9,17.2v16.9L18.7,64z
	 M72.1,157.8v-24c0-15.1,8.5-24.5,21.9-24.5c13.7,0,23.1,9.8,23.1,24.7v23.8H72.1z M107.2,135.5c0-7.2-5.6-11.1-13-11.1
	c-7.2,0-12.2,3.9-12.2,10.9v8.1h25.2V135.5z M108.2,74.2V92l8.9,3.1V110l-45-18V74.1l45-18V71L108.2,74.2z M98.9,77.3L90,80.4
	c-3.2,1.2-5.4,2-8.7,2.6v0.1c3.2,0.5,5.5,1.3,8.7,2.5l8.9,3.1V77.3z M102,46L72.1,63.8V48.2L87.9,40c1.3-0.8,2.3-1.1,3.2-1.3v-0.1
	c-1-0.2-2-0.5-3.2-1.3l-15.8-8.4V13.7L102,31.5h15.1V46H102z M153.3,156.8c-2.3-5.7-5.8-13.5-8.1-17.1c-2.4-4.1-4.7-5.8-7.6-5.8
	c-3.3,0-3.8,2.6-3.8,4.3c0,3.9,2.6,4.9,4.8,5.1c0.6,0,1.2,0,1.7-0.1l-1,10.9c-0.5,0-1,0.1-1.9,0c-4.7-0.2-11.5-3.6-11.5-16.8
	c0-6.8,1.9-15.1,10-15.1c5.4,0,9,3.5,11.8,7.9c1.6,2.6,3.3,6,4.7,10.1v-15.4l8,1.4v31.9L153.3,156.8z M145.9,121
	c-8.5,0-20-4.3-20-19.3c0-7.9,3.2-16.7,15.3-16.7c8.6,0,20.2,4.3,20.2,19.3C161.4,112.2,158.2,121,145.9,121z M140.6,96.1
	c-5.2,0-6.9,2.6-6.9,5.5c0,6.2,8,8.2,12.8,8.2c5.4,0,7.1-2.6,7.1-5.5C153.6,98.2,145.4,96.1,140.6,96.1z M139.6,73.4
	c1.2,1,1.8,3.6,1.8,5.9v2.9l-9.2-1.6v-1.9c0-4.7-1.8-7.4-5.6-9.4v-8.9l33.9,5.9v10.8L139.6,73.4z M149.9,24.8
	c5.8,0,11.5,4.3,11.5,17.4c0,7.4-2.3,16.8-9.5,16.8c-3.8,0-7.1-2.6-8.2-8.5c-1.5,2.8-3.8,4.8-7.5,4.8c-5.2,0-10.3-4.3-10.3-15.8
	c0-7.1,2.1-16.1,8.8-16.1c3.3,0,6,2,7.2,7.2C143.4,27,145.8,24.8,149.9,24.8z M136,44.5c2.2,0,2.9-1.9,3.6-4.6l0.6-3
	c-1.1-2.2-2.7-2.6-3.9-2.6c-3.1,0-3.6,3.2-3.6,5.2C132.6,43.4,134.4,44.5,136,44.5z M150.3,35.9c-2,0-3.1,1.6-3.9,5.5l-0.6,2.6
	c1,2.4,2.7,3.5,4.5,3.5c2.9,0,4-2.5,4-5.8C154.3,37.5,152.3,35.9,150.3,35.9z M31.7,225.1c0,2.2-1.3,4.8-5.8,4.8h-6.6v-17.4h6.1
	c4.6,0,5.8,2.6,5.8,4.6c0,1.6-0.9,3.2-2.9,3.8C30.4,221.2,31.7,222.8,31.7,225.1z M21.7,214.4v5.6h3.7c3,0,3.5-1.5,3.5-2.7
	c0-1.4-0.7-2.8-3.5-2.8h-3.7V214.4z M29.4,224.9c0-1.6-1-2.9-3.3-2.9h-4.4v5.9h4.1C28.6,227.9,29.4,226.4,29.4,224.9z M44.7,224.4
	H36c0,2.4,1.5,4,3.7,4c1.6,0,2.7-0.8,3.3-2.3l1.7,0.8c-0.9,2.2-2.7,3.4-5.1,3.4c-3.5,0-5.6-2.2-5.6-6.3s2.1-6.6,5.6-6.6
	c3.3,0,5.2,1.9,5.2,5.6v1.4L44.7,224.4L44.7,224.4z M42.6,222.4c0-2.3-1.2-3.4-3.2-3.4c-2.2,0-3.4,1.4-3.4,3.7h6.6
	C42.6,222.7,42.6,222.4,42.6,222.4z M53.8,217.3c0.1,0,0.3,0,0.4,0v2h-0.1c-1.3,0-2.1,0.4-2.7,1c-1.2,1.2-1.2,2.8-1.2,4.3v5.3h-2.1
	v-12.3H50v2.8C50.7,218.7,52,217.3,53.8,217.3z M59.2,229.9h-2.1v-17.8h2.1V229.9z M63.6,212.7H66v2.6h-2.4V212.7z M63.7,217.6h2.1
	v12.3h-2.1C63.7,229.9,63.7,217.6,63.7,217.6z M70.2,217.6h2v2.4c0.8-1.9,2.2-2.8,4.1-2.8c2.7,0,4.1,1.7,4.1,5v7.6h-2.1v-7.5
	c0-2.2-0.9-3.3-2.7-3.3c-2,0-3.3,1.6-3.3,4.4v6.4h-2.1V217.6z M84.1,232.2c1.2-0.5,1.5-1.1,1.5-2.3v-0.1H84V227h2.9v2.7
	c0,2-0.5,2.9-2.2,3.6L84.1,232.2z M99.7,214.4v5.5h8v2h-8v7.9h-2.3v-17.4h10.8v2H99.7z M109.9,226.6c0-1.2,0.6-2.3,1.7-2.9
	c0.9-0.5,2.1-0.8,4.1-1l2.3-0.3v-0.2c0-2.3-0.8-3.2-2.7-3.2c-1.7,0-2.7,0.9-2.8,2.4h-2.2c0.2-2.5,2.1-4.1,5-4.1
	c3.4,0,4.8,1.5,4.8,5.1v3.3c0,1.9,0.1,3.2,0.4,4.1h-2.2c-0.1-0.6-0.2-1.4-0.2-2.2c-0.6,1.6-2.1,2.5-4.1,2.5
	C111.5,230.2,109.9,228.8,109.9,226.6z M118,224.5v-0.6l-3.3,0.5c-1.8,0.3-2.6,0.9-2.6,2.1s0.9,1.9,2.4,1.9
	C116.6,228.5,118,226.9,118,224.5z M129.9,217.3c0.1,0,0.3,0,0.4,0v2h-0.1c-1.3,0-2.1,0.4-2.7,1c-1.2,1.2-1.2,2.8-1.2,4.3v5.3h-2.1
	v-12.3h1.9v2.8C126.8,218.7,128,217.3,129.9,217.3z M131.7,223.7c0-4,2.3-6.4,5.7-6.4c3.5,0,5.7,2.4,5.7,6.4s-2.3,6.4-5.7,6.4
	C133.9,230.2,131.7,227.7,131.7,223.7z M140.9,223.7c0-3-1.3-4.6-3.5-4.6s-3.5,1.6-3.5,4.6s1.3,4.6,3.5,4.6
	C139.6,228.4,140.9,226.8,140.9,223.7z M31.7,225.1c0,2.2-1.3,4.8-5.8,4.8h-6.6v-17.4h6.1c4.6,0,5.8,2.6,5.8,4.6
	c0,1.6-0.9,3.2-2.9,3.8C30.4,221.2,31.7,222.8,31.7,225.1z M21.7,214.4v5.6h3.7c3,0,3.5-1.5,3.5-2.7c0-1.4-0.7-2.8-3.5-2.8h-3.7
	V214.4z M29.4,224.9c0-1.6-1-2.9-3.3-2.9h-4.4v5.9h4.1C28.6,227.9,29.4,226.4,29.4,224.9z M44.7,224.4H36c0,2.4,1.5,4,3.7,4
	c1.6,0,2.7-0.8,3.3-2.3l1.7,0.8c-0.9,2.2-2.7,3.4-5.1,3.4c-3.5,0-5.6-2.2-5.6-6.3s2.1-6.6,5.6-6.6c3.3,0,5.2,1.9,5.2,5.6v1.4
	L44.7,224.4L44.7,224.4z M42.6,222.4c0-2.3-1.2-3.4-3.2-3.4c-2.2,0-3.4,1.4-3.4,3.7h6.6C42.6,222.7,42.6,222.4,42.6,222.4z
	 M53.8,217.3c0.1,0,0.3,0,0.4,0v2h-0.1c-1.3,0-2.1,0.4-2.7,1c-1.2,1.2-1.2,2.8-1.2,4.3v5.3h-2.1v-12.3H50v2.8
	C50.7,218.7,52,217.3,53.8,217.3z M59.2,229.9h-2.1v-17.8h2.1V229.9z M63.6,212.7H66v2.6h-2.4V212.7z M63.7,217.6h2.1v12.3h-2.1
	C63.7,229.9,63.7,217.6,63.7,217.6z M70.2,217.6h2v2.4c0.8-1.9,2.2-2.8,4.1-2.8c2.7,0,4.1,1.7,4.1,5v7.6h-2.1v-7.5
	c0-2.2-0.9-3.3-2.7-3.3c-2,0-3.3,1.6-3.3,4.4v6.4h-2.1V217.6z M84.1,232.2c1.2-0.5,1.5-1.1,1.5-2.3v-0.1H84V227h2.9v2.7
	c0,2-0.5,2.9-2.2,3.6L84.1,232.2z M99.7,214.4v5.5h8v2h-8v7.9h-2.3v-17.4h10.8v2H99.7z M109.9,226.6c0-1.2,0.6-2.3,1.7-2.9
	c0.9-0.5,2.1-0.8,4.1-1l2.3-0.3v-0.2c0-2.3-0.8-3.2-2.7-3.2c-1.7,0-2.7,0.9-2.8,2.4h-2.2c0.2-2.5,2.1-4.1,5-4.1
	c3.4,0,4.8,1.5,4.8,5.1v3.3c0,1.9,0.1,3.2,0.4,4.1h-2.2c-0.1-0.6-0.2-1.4-0.2-2.2c-0.6,1.6-2.1,2.5-4.1,2.5
	C111.5,230.2,109.9,228.8,109.9,226.6z M118,224.5v-0.6l-3.3,0.5c-1.8,0.3-2.6,0.9-2.6,2.1s0.9,1.9,2.4,1.9
	C116.6,228.5,118,226.9,118,224.5z M129.9,217.3c0.1,0,0.3,0,0.4,0v2h-0.1c-1.3,0-2.1,0.4-2.7,1c-1.2,1.2-1.2,2.8-1.2,4.3v5.3h-2.1
	v-12.3h1.9v2.8C126.8,218.7,128,217.3,129.9,217.3z M131.7,223.7c0-4,2.3-6.4,5.7-6.4c3.5,0,5.7,2.4,5.7,6.4s-2.3,6.4-5.7,6.4
	C133.9,230.2,131.7,227.7,131.7,223.7z M140.9,223.7c0-3-1.3-4.6-3.5-4.6s-3.5,1.6-3.5,4.6s1.3,4.6,3.5,4.6
	C139.6,228.4,140.9,226.8,140.9,223.7z M18.6,191.9h143v6.7h-143C18.6,198.6,18.6,191.9,18.6,191.9z"/>
</svg>
