<?xml version="1.0" encoding="utf-8"?>
<!-- Generator: Adobe Illustrator 22.1.0, SVG Export Plug-In . SVG Version: 6.00 Build 0)  -->
<svg version="1.1" id="Ebene_1" xmlns="http://www.w3.org/2000/svg" xmlns:xlink="http://www.w3.org/1999/xlink" x="0px" y="0px"
	 viewBox="0 0 287 63" style="enable-background:new 0 0 287 63;" xml:space="preserve">
<path d="M166,60.9c0.4-1.5,0.7-2.9,1.1-4.4c1.8-7.4,3.7-14.7,5.5-22.1c1.8-7.1,3.5-14.2,5.3-21.4c0.1-0.4,0.2-0.8,0.3-1.3
	c6.9-0.6,13.7-1.3,20.6-1.9c6.7,17,13.4,33.9,20.2,51c-0.2,0-0.4,0-0.5,0c-1.3,0-2.5,0-3.8,0c-0.2,0-0.4,0-0.6,0.1
	c-3.6,0-7.1,0-10.7,0c-0.1-0.2-0.2-0.3-0.2-0.5c-1-2.6-2-5.3-3-7.9c-0.1-0.2-0.1-0.3-0.2-0.5c-6,0.1-12,0.2-18,0.3
	c0,0.2-0.1,0.3-0.1,0.4c-0.4,1.5-0.8,3.1-1.2,4.6c-0.3,1.2-0.6,2.3-0.9,3.5C175.1,60.9,170.5,60.9,166,60.9z M184.2,42.8
	c4-0.1,7.9-0.3,11.9-0.4c0-0.2-0.1-0.3-0.1-0.3c-1.3-3.3-2.5-6.5-3.8-9.8c-1.2-3.1-2.5-6.2-3.2-9.5c0-0.1-0.1-0.2-0.1-0.3
	c-0.1,0.1-0.1,0.2-0.1,0.3c-0.2,2.1-0.5,4.1-1,6.1c-0.9,3.7-1.9,7.4-2.9,11.1C184.7,40.9,184.5,41.8,184.2,42.8z M126,60.9
	c-0.4-1.3-0.7-2.6-1.1-3.9c-3.2-10.9-6.3-21.7-9.5-32.6c-0.6-2.1-1.2-4.1-1.8-6.2c-0.1-0.2-0.1-0.4-0.1-0.6c0.2,0,0.3-0.1,0.5-0.1
	c4.7-0.4,9.4-0.9,14-1.3c2.6-0.2,5.3-0.5,7.9-0.7c7-0.4,13.2,1.5,18.5,6.2c3.1,2.8,5.3,6.2,6.7,10c1.5,3.8,2.1,7.8,2,11.9
	c-0.1,2.6-0.6,5.2-1.6,7.6c-1.8,4-4.8,6.7-9,8.3c-1.7,0.6-3.4,1-5.2,1.1c-0.2,0-0.4,0.1-0.5,0.1C139.8,60.9,132.9,60.9,126,60.9z
	 M135.2,52.2c0.2,0,0.4,0,0.6,0c2,0,3.9-0.1,5.9-0.1c0.4,0,0.9,0,1.3-0.1c2.3-0.4,4-1.6,5.1-3.7c0.6-1.2,0.9-2.4,1-3.7
	c0.2-2.1,0-4.2-0.5-6.3c-0.6-2.6-1.6-5-3.3-7.1c-2.4-3-5.5-4.5-9.3-4.2c-2,0.1-4,0.3-5.9,0.4c-0.3,0-0.7,0.1-1,0.1
	C131,35.7,133.1,43.9,135.2,52.2z M249.5,57.9c0.7-4.4,1.3-8.9,2-13.3c0-0.3,0.1-0.5,0.3-0.8c5.1-6.5,10.2-13.1,15.3-19.6
	c5.6-7.2,11.2-14.3,16.8-21.5c0.1-0.2,0.2-0.3,0.4-0.6c-0.3,0-0.5,0-0.7,0.1c-0.5,0-1.1,0.1-1.6,0.2c-3.1,0.3-6.3,0.6-9.4,0.9
	c-3.6,0.3-7.2,0.7-10.8,1c-0.4,0-0.6,0.2-0.8,0.5c-1.6,2.5-3.2,4.9-4.7,7.3c-3.4,5.3-6.8,10.5-10.2,15.8c-0.7,1-1.2,2.1-1.6,3.2
	c0,0.1-0.1,0.3-0.2,0.4c-0.1-0.1-0.1-0.2-0.2-0.3c-0.1-1.1-0.5-2.2-1-3.3c-0.1-0.3-0.3-0.5-0.4-0.8c-2.8-6.6-5.6-13.1-8.4-19.7
	c-0.1-0.2-0.2-0.3-0.2-0.5c-1.3,0-19.8,1.8-20.2,1.9c0.1,0.1,0.2,0.3,0.2,0.4c2.4,4.3,4.7,8.5,7.1,12.8c4.1,7.4,8.1,14.7,12.2,22.1
	c0.3,0.5,0.4,1,0.3,1.6c-0.2,1.7-0.3,3.5-0.5,5.2c-0.2,2.6-0.5,5.1-0.7,7.7c-0.1,0.8-0.1,1.6-0.2,2.4c5.6,0,11.2,0,16.9,0
	C249.2,59.8,249.3,58.8,249.5,57.9z M107.1,18.4c-1.6,0.1-3.2,0.3-4.8,0.4c-2.3,0.2-4.7,0.4-7,0.6c-0.7,0.1-0.7,0.1-1,0.7
	c-2.9,5.6-5.8,11.2-8.7,16.8c-2.1,4.2-4.5,8.3-6.2,12.7c0,0.1-0.1,0.1-0.2,0.2c0-0.2,0-0.4,0-0.5c0.2-1.8,0.2-3.6,0.1-5.3
	c-0.1-3.8-0.3-7.5-0.5-11.3c-0.1-3.2-0.2-6.4-0.4-9.6c0-0.6-0.1-1.3-0.1-2c-3.8,0.4-7.6,0.7-11.4,1.1C68,35.1,69,48,70.1,60.9
	c0.3,0,0.4,0,0.6,0c4,0,7.9,0,11.9,0c0.4,0,0.6-0.1,0.9-0.5c3-5.2,6-10.5,9-15.7c4.9-8.6,9.8-17.1,14.7-25.7
	c0.1-0.2,0.2-0.3,0.3-0.6C107.4,18.3,107.2,18.4,107.1,18.4z M30.3,60.7c8.3,0,16.5,0,24.8,0c0.7-2.9,1.4-5.7,2.1-8.6
	c-5.4,0.1-10.7,0.2-16,0.3c0.5-2.2,1.1-4.4,1.6-6.5c5-0.2,10-0.4,15.1-0.6c0.7-2.7,1.3-5.4,2-8.2c-5.1,0.3-10.1,0.6-15.1,0.9
	c0.5-2,1-4,1.4-6c5.3-0.4,10.6-0.8,15.9-1.2c0.7-2.9,1.4-5.7,2.1-8.6c-8.4,0.8-16.7,1.6-25,2.3C36.2,36.7,33.2,48.7,30.3,60.7z
	 M0.8,60.8C3.5,49.7,6.3,38.6,9,27.5c0.6-0.1,1.2-0.1,1.8-0.2c2.3-0.2,4.7-0.4,7-0.6c1.6-0.1,3.3-0.3,4.9-0.4
	c1.5-0.1,2.9,0.1,4.3,0.6c2.6,1,4.2,2.9,5.1,5.5c0.4,1.4,0.6,2.9,0.5,4.3c-0.3,6.7-2.5,12.6-6.7,17.7c-1.9,2.3-4.3,4.1-7.1,5.3
	c-1.8,0.7-3.6,1.1-5.5,1.1c-4,0-7.9,0-11.9,0C1.2,60.8,1.1,60.8,0.8,60.8z M10.2,53.3c0.2,0,0.2,0,0.3,0c1.4,0,2.8-0.1,4.2-0.1
	c0.2,0,0.3,0,0.5-0.1c1.2-0.2,2.2-0.7,3.1-1.5c1.2-1,2.1-2.2,2.8-3.5c1.5-2.7,2.4-5.6,2.6-8.7c0.1-1,0-2.1-0.4-3.1
	c-0.6-1.8-2-2.5-3.8-2.5c-1.3,0.1-2.7,0.2-4,0.3c-0.2,0-0.4,0.1-0.6,0.1C13.3,40.6,11.7,46.9,10.2,53.3z"/>
</svg>
